<?xml version="1.0" standalone="no"?>
<!DOCTYPE svg PUBLIC "-//W3C//DTD SVG 1.1//EN" "http://www.w3.org/Graphics/SVG/1.1/DTD/svg11.dtd">
<svg xmlns="http://www.w3.org/2000/svg">
<defs >
<font id="SplineSansMono" horiz-adv-x="1216" ><font-face
    font-family="Spline Sans Mono Medium"
    units-per-em="2000"
    panose-1="2 6 6 9 3 5 2 8 1 4"
    ascent="1927"
    descent="-473"
    alphabetic="0" />
<glyph unicode=" " horiz-adv-x="1200" />
<glyph unicode="!" horiz-adv-x="1200" d="M516 559L467 1234L444 1700H756L733 1234L684 559H516ZM600 -28Q524 -28 472 25T419 162Q419 245 471 298T600 351Q677 351 729 298T781 162Q781 78 729 25T600 -28Z" />
<glyph unicode="&quot;" horiz-adv-x="1200" d="M289 721L250 1556H490L451 721H289ZM749 721L710 1556H950L911 721H749Z" />
<glyph unicode="#" horiz-adv-x="1200" d="M553 20L872 1424H1056L737 20H553ZM52 353V503H1043V353H52ZM144 20L463 1424H646L328 20H144ZM138 911V1061H1148V911H138Z" />
<glyph unicode="$" horiz-adv-x="1200" d="M522 -190V28H717V-190H522ZM523 1426V1642H718V1426H523ZM614 1Q474 1 367 50T199 199T132 449H338Q342 364 380 308T482 224T628 196Q703 196 757 218T842 282T872 378Q872 433 845 475T750 555T562 634Q441 676 355
735T224 876T178 1069Q178 1196 233 1282T387 1413T620 1458Q834 1458 931 1356T1054 1060H846Q837 1129 811 1174T737 1241T610 1263Q509 1263 448 1217T387 1079Q387 1029 402 987T476 903T660 811Q752 774 829 740T964 663T1052 557T1085 397Q1087 206 961 104T614
1Z" />
<glyph unicode="%" horiz-adv-x="1200" d="M262 0L826 1454H933L371 0H262ZM283 858Q341 858 371 917T402 1088Q402 1198 371 1256T280 1314Q224 1314 194 1256T164 1088Q164 976 194 917T283 858ZM280 716Q150 716 82 813T13 1095Q13 1277 82 1373T283 1469Q414
1469 483 1373T552 1095Q552 911 482 814T280 716ZM920 127Q977 127 1007 186T1038 357Q1038 467 1007 525T916 583Q860 583 830 525T800 357Q800 245 831 186T920 127ZM916 -15Q786 -15 717 82T648 364Q648 546 718 642T920 738Q1050 738 1119 642T1188 364Q1188
180 1118 83T916 -15Z" />
<glyph unicode="&amp;" horiz-adv-x="1200" d="M573 -19Q447 -19 358 18T212 116T130 249T104 393Q104 530 157 609T289 725T445 767L545 790Q619 817 655 870T702 991T714 1127Q714 1164 702 1203T658 1269T565 1296Q500 1296 466 1266T418 1194T405 1115Q405
1021 443 956T549 817L591 762L914 342L954 301L1172 0H955L850 141L807 197L439 701L395 757Q359 797 317 850T244 969T214 1107Q214 1218 260 1302T386 1432T567 1479Q662 1479 738 1438T860 1319T905 1127Q905 1057 877 987T772 858T549 760L453 748Q388 730
354 680T307 565T294 439Q294 372 322 313T413 216T576 178Q661 178 711 196T790 239T844 284L891 336Q910 372 922 408T940 494T946 622L1115 623Q1115 535 1100 455T1056 309T984 193L958 170Q904 75 804 28T573 -19Z" />
<glyph unicode="&apos;" horiz-adv-x="1200" d="M519 721L480 1556H720L681 721H519Z" />
<glyph unicode="(" horiz-adv-x="1200" d="M729 -250Q620 -180 536 -74T395 162T309 432T280 708Q280 842 309 981T395 1250T536 1488T729 1666H992Q876 1576 787 1466T638 1232T546 976T515 708Q515 518 569 343T730 17T992 -250H729Z" />
<glyph unicode=")" horiz-adv-x="1200" d="M280 -250Q436 -134 542 16T702 342T757 708Q757 843 726 975T635 1231T485 1465T280 1666H543Q652 1596 736 1489T877 1251T963 981T992 708Q992 572 963 432T877 163T736 -73T543 -250H280Z" />
<glyph unicode="*" horiz-adv-x="1200" d="M403 459L196 610L539 925L77 982L156 1226L562 997L470 1454H726L638 997L1044 1226L1123 982L661 925L1004 610L797 459L600 881L403 459Z" />
<glyph unicode="+" horiz-adv-x="1200" d="M493 223V548Q493 591 510 621T567 660L493 728V849V1293H709V223H493ZM94 659V857H1106V659H94Z" />
<glyph unicode="," horiz-adv-x="1200" d="M488 -571V-383H520Q537 -383 553 -366T581 -298T592 -141Q592 -73 604 -44T678 0H474V331H783V-114Q783 -271 755 -372T667 -522T510 -571H488Z" />
<glyph unicode="-" horiz-adv-x="1200" d="M219 636V818H981V636H219Z" />
<glyph unicode="." horiz-adv-x="1200" d="M601 -28Q524 -28 472 25T419 162Q419 245 471 298T601 351Q677 351 729 298T781 162Q781 78 729 25T601 -28Z" />
<glyph unicode="/" horiz-adv-x="1200" d="M173 -195L816 1691H1027L384 -195H173Z" />
<glyph unicode="0" horiz-adv-x="1200" d="M600 -30Q428 -30 315 47T145 292T89 735Q89 1001 145 1166T314 1407T600 1483Q773 1483 886 1407T1055 1166T1111 735Q1111 461 1055 293T886 47T600 -30ZM600 163Q670 163 724 188T815 277T871 451T890 735Q890 903
871 1011T815 1180T724 1265T600 1289Q530 1289 476 1265T385 1180T329 1011T310 735Q310 563 329 452T385 277T476 189T600 163ZM600 579Q540 580 515 620T490 731Q490 802 515 842T600 882Q660 882 685 842T710 731Q710 660 685 620T600 579Z" />
<glyph unicode="1" horiz-adv-x="1200" d="M540 70L541 1019Q541 1089 546 1155T559 1288L563 1454H774V70H540ZM149 0V197H1109V0H149ZM69 1061V1272Q155 1251 234 1258T380 1294T494 1364T563 1454L559 1288Q546 1201 490 1147T358 1068T204 1043T69 1061Z" />
<glyph unicode="2" horiz-adv-x="1200" d="M58 0Q90 37 108 58T144 99T186 146T255 222T371 352T554 559Q656 675 721 756T817 904T848 1045Q848 1157 789 1223T612 1290Q539 1290 479 1260T382 1168T345 1005Q345 992 346 978T348 949H132Q128 972 126 994T124
1036Q124 1145 159 1228T258 1369T412 1455T612 1484Q833 1484 954 1372T1075 1059Q1075 956 1045 877T956 720T813 545Q730 448 676 388T587 288T524 216T466 145Q501 186 555 191T711 197H1084V0H58Z" />
<glyph unicode="3" horiz-adv-x="1200" d="M614 -30Q508 -30 413 -5T244 77T131 222T99 441H325Q319 317 389 240T611 163Q731 163 817 221T903 398Q903 538 819 596T606 655H445V850H606Q684 850 737 882T818 967T846 1082Q846 1183 781 1237T615 1291Q508 1291
441 1232T380 1037H154Q153 1191 205 1289T360 1436T615 1484Q776 1484 876 1434T1022 1295T1069 1091Q1069 1019 1039 947T945 823T776 755Q941 743 1034 656T1127 398Q1127 258 1065 163T887 19T614 -30Z" />
<glyph unicode="4" horiz-adv-x="1200" d="M49 240L524 1454H785L390 493L359 438H1141L1140 240H49ZM739 0L740 364L814 438Q777 438 762 465T743 531T740 606L739 879L968 884V0H739Z" />
<glyph unicode="5" horiz-adv-x="1200" d="M599 -30Q429 -30 313 37T142 210T97 437H322Q320 374 347 314T437 216T609 177Q673 177 735 200T840 284T882 460Q882 604 808 673T588 742Q509 742 431 718T300 652L127 716L223 1454H1046V1252H420L323 767Q360 844
452 888T675 933Q763 933 842 909T983 832T1080 691T1115 479Q1115 324 1053 210T874 33T599 -30Z" />
<glyph unicode="6" horiz-adv-x="1200" d="M625 -30Q476 -30 359 38T175 239T107 568Q107 739 153 878T268 1126T412 1317T542 1454H862Q792 1399 721 1338T583 1206T464 1052T376 870T334 653L332 687Q348 744 379 795T459 885T575 946T728 969Q853 969 943 907T1082
734T1131 475Q1131 367 1092 275T983 114T822 8T625 -30ZM624 170Q714 170 776 207T870 311T902 470Q902 555 884 624T813 735T653 777Q570 777 511 757T413 706T346 642Q341 635 340 594T339 527Q339 441 364 359T452 224T624 170Z" />
<glyph unicode="7" horiz-adv-x="1200" d="M302 0L781 1116Q811 1186 870 1222T1017 1259L1040 1244H87V1454H1032H1138L555 0H302Z" />
<glyph unicode="8" horiz-adv-x="1200" d="M601 -30Q453 -30 338 18T158 160T92 392Q92 565 181 653T437 757Q338 768 274 817T178 936T146 1075Q146 1265 259 1374T601 1484Q831 1484 942 1374T1054 1075Q1054 1006 1023 937T928 817T765 755Q930 742 1019 653T1108
392Q1108 254 1042 160T862 18T601 -30ZM601 170Q718 170 802 226T887 401Q887 538 805 596T601 655Q477 655 395 598T312 401Q312 283 396 227T601 170ZM601 851Q676 851 728 883T807 967T835 1081Q835 1184 769 1237T601 1290Q495 1290 430 1237T365 1081Q365
1020 389 968T465 883T601 851Z" />
<glyph unicode="9" horiz-adv-x="1200" d="M334 0Q387 43 455 102T594 236T726 400T828 591T874 806L885 808Q866 742 836 683T762 577T660 505T527 479Q394 479 290 542T126 717T65 971Q65 1095 104 1190T214 1351T379 1450T581 1484Q726 1484 843 1421T1030
1225T1100 887Q1100 714 1054 571T937 315T793 124T665 0H334ZM574 677Q642 677 695 699T790 758T859 840Q864 848 864 877T865 940Q865 1029 834 1107T739 1234T578 1283Q487 1283 424 1247T327 1147T294 996Q295 856 365 767T574 677Z" />
<glyph unicode=":" horiz-adv-x="1200" d="M601 -28Q524 -28 472 25T419 162Q419 245 471 298T601 351Q677 351 729 298T781 162Q781 78 729 25T601 -28ZM601 709Q524 709 472 762T419 899Q419 982 471 1035T601 1088Q677 1088 729 1035T781 899Q781 815 729 762T601
709Z" />
<glyph unicode=";" horiz-adv-x="1200" d="M611 709Q534 709 482 762T429 899Q429 982 481 1035T611 1088Q687 1088 739 1035T791 899Q791 815 739 762T611 709ZM488 -571V-383H520Q537 -383 553 -366T581 -298T592 -141Q592 -73 604 -44T678 0H474V331H783V-114Q783
-271 755 -372T667 -522T510 -571H488Z" />
<glyph unicode="&lt;" horiz-adv-x="1200" d="M974 136L146 624V860L974 1348V1101L536 847L346 744V740L536 636L974 383V136Z" />
<glyph unicode="=" horiz-adv-x="1200" d="M131 431V626H1069V431H131ZM131 890V1085H1069V890H131Z" />
<glyph unicode="&gt;" horiz-adv-x="1200" d="M226 136V383L664 636L854 740V744L664 847L226 1101V1348L1054 860V624L226 136Z" />
<glyph unicode="?" horiz-adv-x="1200" d="M486 559Q480 576 476 630T471 723Q471 789 498 840T568 935T659 1019T751 1100T821 1187T848 1292Q848 1346 821 1394T743 1472T620 1503Q507 1503 446 1461T365 1340T354 1151L120 1152Q104 1258 122 1357T200 1536T362
1663T617 1710Q741 1710 831 1676T981 1586T1069 1462T1098 1324Q1098 1219 1067 1146T988 1021T884 931T781 854T701 772T670 664Q670 607 671 589T673 559H486ZM600 -28Q524 -28 472 25T419 162Q419 245 471 298T600 351Q677 351 729 298T781 162Q781 78 729
25T600 -28Z" />
<glyph unicode="@" horiz-adv-x="1200" d="M608 -271Q303 -271 162 -74T20 536Q20 973 168 1182T639 1391Q920 1391 1050 1220T1180 690Q1180 398 1106 258T867 118Q777 118 741 176T721 358Q723 371 726 404T735 494H729Q692 307 639 217T515 127Q408 127 357
217T305 496Q305 759 388 884T644 1009Q689 1009 725 998T789 963H898Q873 665 861 521T849 375Q849 289 894 289Q972 289 1009 388T1047 696Q1047 974 947 1106T637 1239Q392 1239 275 1067T157 534Q157 200 271 41T623 -119Q777 -119 895 -30L902 -181Q785 -271
608 -271ZM551 316Q637 316 680 429T727 780Q696 829 643 829Q561 829 522 750T483 504Q483 316 551 316Z" />
<glyph unicode="A" horiz-adv-x="1200" d="M-9 0L457 1454H745L1209 0H974L845 432L973 343H278L353 533H915L844 435L691 951L604 1284H596L511 951L227 0H-9Z" />
<glyph unicode="B" horiz-adv-x="1200" d="M153 0V1454H577Q761 1454 865 1406T1012 1277T1056 1096Q1056 963 988 873T817 761Q893 758 965 722T1084 617T1131 443Q1131 293 1063 195T880 48T628 0H153ZM371 190H595Q728 190 807 248T887 429Q887 529 849 577T748
640T610 655H371V190ZM371 835H564Q654 835 711 861T796 940T824 1074Q825 1171 772 1218T562 1266H371V835Z" />
<glyph unicode="C" horiz-adv-x="1200" d="M608 -29Q450 -29 334 65T154 330T90 729Q90 962 156 1130T343 1390T625 1482Q764 1482 867 1427T1029 1253T1092 942H857Q851 1065 825 1138T750 1244T629 1277Q525 1277 456 1219T353 1040T319 729Q319 478 397 327T623
175Q705 175 755 203T830 284T860 413H1085Q1079 286 1040 201T935 65T786 -7T608 -29Z" />
<glyph unicode="D" horiz-adv-x="1200" d="M357 0L312 208H509Q625 208 714 264T854 436T905 734Q905 925 859 1037T724 1197T508 1246H304L357 1454H492Q793 1454 962 1283T1132 736Q1132 493 1048 330T819 83T494 0H357ZM135 0V1454H357V0H135Z" />
<glyph unicode="E" horiz-adv-x="1200" d="M153 0V1454H1011V1264H275L375 1357V789L275 858H934V668H320L375 746V78L275 195H1047V0H153Z" />
<glyph unicode="F" horiz-adv-x="1200" d="M163 0V1454H1051V1264H288L388 1357V759L289 831H966V641H358L388 699V0H163Z" />
<glyph unicode="G" horiz-adv-x="1200" d="M632 -29Q447 -29 324 65T141 330T80 731Q80 961 145 1129T336 1389T645 1481Q758 1481 852 1441T1008 1302T1089 1027H872Q864 1118 832 1172T747 1250T628 1274Q510 1274 439 1203T337 1009T306 731Q306 561 344 437T454
246T630 178Q695 178 761 196T874 260V568H636V770H1077L1075 155Q1009 95 937 54T789 -8T632 -29Z" />
<glyph unicode="H" horiz-adv-x="1200" d="M846 0V1454H1070V0H846ZM130 0V1454H354V0H130ZM287 647V847H882L879 647H287Z" />
<glyph unicode="I" horiz-adv-x="1200" d="M155 0V206H485V1165Q485 1197 499 1218T538 1248H155V1454H1045V1248H714V289Q714 258 701 236T661 206H1045V0H155Z" />
<glyph unicode="J" horiz-adv-x="1200" d="M554 -30Q439 -30 341 2T172 100T70 270T54 515H270Q270 414 291 348T350 245T440 192T552 176Q618 176 679 198T779 291T818 501V1454H1050V531Q1050 317 988 195T814 21T554 -30Z" />
<glyph unicode="K" horiz-adv-x="1200" d="M382 398L353 629L613 1000L921 1454H1186L707 783L646 725L382 398ZM167 0V1454H389V0H167ZM965 0L533 782L714 889L1211 0H965Z" />
<glyph unicode="L" horiz-adv-x="1200" d="M163 0V1454H388V98L282 208H1061V0H163Z" />
<glyph unicode="M" horiz-adv-x="1200" d="M78 0L105 1454H417L555 876L599 633H603L648 876L782 1454H1095L1122 0H923L910 412L921 1274H905L832 954L675 370H531L366 954L293 1274H277L291 412L277 0H78Z" />
<glyph unicode="N" horiz-adv-x="1200" d="M130 0V1454H396L763 572L881 266H889L854 582V1454H1070V0H804L441 873L326 1174H318L346 849V0H130Z" />
<glyph unicode="O" horiz-adv-x="1200" d="M600 -30Q441 -30 324 57T143 315T79 735Q79 1097 220 1290T600 1483Q841 1483 981 1290T1121 735Q1121 486 1058 316T878 58T600 -30ZM600 177Q741 177 817 305T894 735Q894 1029 818 1152T600 1276Q461 1276 384 1153T306
735Q306 434 383 306T600 177Z" />
<glyph unicode="P" horiz-adv-x="1200" d="M441 498Q415 498 395 518T374 576L304 646L374 702H663Q752 702 811 732T900 824T930 983Q930 1084 896 1141T797 1221T645 1245H368L282 1454Q317 1454 366 1454T469 1454T569 1454T645 1454Q897 1454 1027 1345T1158
987Q1158 895 1133 808T1050 651T897 540T661 498H441ZM150 0V1454H374V0H150Z" />
<glyph unicode="Q" horiz-adv-x="1200" d="M600 -30Q441 -30 324 57T143 315T79 735Q79 1097 220 1290T600 1483Q841 1483 981 1290T1121 735Q1121 486 1058 316T878 58T600 -30ZM600 177Q741 177 817 305T894 735Q894 1029 818 1152T600 1276Q461 1276 384 1153T306
735Q306 434 383 306T600 177ZM1046 -316L881 53H1070Q1088 53 1112 38T1155 -12L1319 -316H1046Z" />
<glyph unicode="R" horiz-adv-x="1200" d="M913 0L580 574H349L283 589L312 743V775H582Q672 775 725 807T801 895T825 1023Q825 1112 796 1163T710 1238T565 1261L367 1262L365 1308L282 1454Q328 1454 375 1454T467 1454T549 1454Q806 1454 930 1356T1055 1042Q1055
972 1038 901T980 768T872 662T704 601L683 631Q728 631 756 625T806 596T856 526L1159 0H913ZM153 0V1454H373V0H153Z" />
<glyph unicode="S" horiz-adv-x="1200" d="M610 -20Q457 -20 340 26T157 176T87 450H305Q308 344 353 285T469 203T620 179Q709 179 770 206T862 277T894 372Q894 446 860 491T754 570T569 637Q448 674 351 735T198 885T142 1087Q142 1219 208 1305T382 1434T616
1477Q805 1477 928 1374T1076 1059H867Q858 1128 825 1177T738 1252T606 1278Q496 1278 426 1233T356 1096Q356 1033 377 987T461 901T649 817Q739 786 822 752T970 670T1073 555T1111 385Q1112 259 1047 168T869 29T610 -20Z" />
<glyph unicode="T" horiz-adv-x="1200" d="M488 0V1171Q488 1203 502 1224T541 1254H100V1454H1100V1254H712V0H488Z" />
<glyph unicode="U" horiz-adv-x="1200" d="M605 -20Q460 -20 350 32T177 203T115 516V1456H339V554Q339 451 359 381T415 268T500 206T606 187Q659 187 705 206T786 267T841 380T861 554V1454H1085V516Q1085 321 1022 203T851 33T605 -20Z" />
<glyph unicode="V" horiz-adv-x="1200" d="M445 0L37 1454H296L532 479L592 210H608L669 479L904 1454H1163L756 0H445Z" />
<glyph unicode="W" horiz-adv-x="1200" d="M194 0L-10 1454H231L327 397Q332 345 341 304T355 191H362L393 520L481 1105H719L807 520L838 191H846Q850 262 859 303T873 397L970 1454H1210L1008 0H732L659 464Q640 581 627 682T603 901H597Q586 784 573 682T541
464L470 0H194Z" />
<glyph unicode="X" horiz-adv-x="1200" d="M39 0L460 724L39 1454H315L461 1148L602 882L739 1146L881 1454H1162L742 724L1162 0H881L739 298L598 574L461 296L315 0H39Z" />
<glyph unicode="Y" horiz-adv-x="1200" d="M495 468L21 1454H274L445 1068L590 724H608L754 1067L927 1454H1179L706 468H495ZM491 0V591H710V0H491Z" />
<glyph unicode="Z" horiz-adv-x="1200" d="M89 0L737 1152L836 1269L695 1263H166V1454H1134L475 282L396 178L543 191H1077V0H89Z" />
<glyph unicode="[" horiz-adv-x="1200" d="M251 -250V1666H935V1480H375L462 1569V-152L375 -63H935V-250H251Z" />
<glyph unicode="\" horiz-adv-x="1200" d="M1027 -195H816L173 1691H384L1027 -195Z" />
<glyph unicode="]" horiz-adv-x="1200" d="M949 -250H265V-64H825L738 -153V1569L825 1480H265V1666H949V-250Z" />
<glyph unicode="^" horiz-adv-x="1200" d="M158 545L479 1454H721L1042 545H807L638 1107L604 1238H596L563 1107L393 545H158Z" />
<glyph unicode="_" horiz-adv-x="1200" d="M-4 -221V-51H1204V-221H-4Z" />
<glyph unicode="`" horiz-adv-x="1200" d="M617 1192L283 1823H507L817 1192H617Z" />
<glyph unicode="a" horiz-adv-x="1200" d="M480 -12Q330 -12 240 71T150 296Q150 417 229 496T464 603Q538 616 610 625T739 639T821 647V731Q821 839 771 883T616 928Q512 928 453 887T395 720H192Q181 841 232 929T382 1064T617 1112Q819 1112 926 1011T1034
706V0H821V243Q802 170 752 113T631 22T480 -12ZM556 162Q610 162 668 183T769 239T821 313V517Q807 516 769 511T688 499T612 485Q486 460 437 421T387 312Q387 243 430 203T556 162Z" />
<glyph unicode="b" horiz-adv-x="1200" d="M657 -12Q596 -12 539 16T439 94T381 207L309 239L386 336Q397 276 431 241T510 190T593 174Q674 174 735 219T831 353T865 577Q865 743 810 833T631 923Q596 923 545 904T451 845T393 738L383 824L392 856Q401 925 446
983T560 1076T712 1112Q828 1112 914 1051T1047 870T1094 576Q1094 390 1034 259T875 58T657 -12ZM170 0L169 1556H393V1068L394 236L411 200L392 176L386 0H170Z" />
<glyph unicode="c" horiz-adv-x="1200" d="M647 -19Q491 -19 379 52T207 252T146 549Q146 727 207 853T377 1045T625 1112Q768 1112 866 1053T1013 898T1060 686H842Q842 738 829 781T788 856T721 905T626 923Q489 924 430 822T371 554Q371 363 441 267T653 171Q706
171 749 188T818 238T848 313H1059Q1062 209 1003 135T849 21T647 -19Z" />
<glyph unicode="d" horiz-adv-x="1200" d="M522 -12Q402 -12 311 54T168 246T116 554Q116 724 175 849T336 1043T563 1112Q634 1112 688 1084T778 1006T830 893L902 861L825 754Q814 814 782 851T709 905T633 922Q505 922 425 824T345 551Q345 434 375 349T462
218T601 171Q642 171 687 188T768 245T818 350L828 276L819 244Q810 176 767 118T659 24T522 -12ZM821 0L818 350V1556H1042V0H821Z" />
<glyph unicode="e" horiz-adv-x="1200" d="M640 -15Q497 -15 385 49T207 240T142 549Q142 729 204 855T372 1047T612 1113Q815 1113 941 982T1067 606Q1067 572 1065 553T1062 504H360Q362 385 403 313T509 208T644 175Q721 175 768 202T840 310H1044Q1033 206
980 133T839 23T640 -15ZM361 587Q369 631 398 647T478 663H840Q837 790 785 856T620 923Q493 923 427 832T361 587Z" />
<glyph unicode="f" horiz-adv-x="1200" d="M451 40V698Q451 790 474 838T582 894L451 1047V1274Q451 1407 505 1493T656 1622T882 1664Q924 1664 973 1661T1065 1653T1128 1645V1434Q1107 1442 1064 1449T974 1460T892 1464Q829 1464 778 1447T695 1390T664 1279V40H451ZM249
0V178H997V0H249ZM210 894V1092H1007V894H210Z" />
<glyph unicode="g" horiz-adv-x="1200" d="M625 -454Q466 -454 352 -414T175 -304T113 -144Q113 -70 150 -21T241 54T346 83L398 78Q384 63 368 41T342 -12T331 -84Q331 -136 356 -177T444 -243T620 -267Q763 -267 827 -227T891 -108Q891 -54 856 -29T722 10L463
45Q334 63 270 98T185 175T164 249Q164 305 195 341T272 397T361 424T431 428Q403 414 385 392T367 328Q367 282 396 260T501 227L759 193Q905 174 981 128T1086 20T1114 -108Q1114 -189 1083 -253T989 -362T836 -430T625 -454ZM623 384Q432 384 317 482T202 747Q202
916 318 1014T625 1110Q746 1108 840 1065T989 940T1044 744Q1044 578 929 481T623 384ZM624 558Q731 558 783 606T835 745Q835 837 783 886T622 936Q516 936 464 888T412 750Q412 658 464 608T624 558ZM745 1071L732 1081Q741 1169 781 1221T879 1297T1000 1321Q1020
1321 1037 1319T1067 1312V1102Q1036 1107 1013 1110T944 1114Q916 1114 880 1114T809 1106T745 1071Z" />
<glyph unicode="h" horiz-adv-x="1200" d="M183 0V1556H407V1091L381 762L400 692L377 763Q389 853 426 933T535 1064T725 1114Q880 1114 958 1015T1036 723V0H812V646Q812 788 772 847T633 906Q556 906 496 867T407 765V0H183Z" />
<glyph unicode="i" horiz-adv-x="1200" d="M583 30V764Q583 808 602 846T685 888L583 933L572 1020L804 1091L800 30H583ZM241 0V176H1110V0H241ZM191 888V1091H804L729 888H191ZM680 1274Q612 1274 564 1320T516 1441Q516 1518 564 1565T680 1612Q748 1612 796
1565T844 1441Q844 1366 796 1320T680 1274Z" />
<glyph unicode="j" horiz-adv-x="1200" d="M531 -462Q447 -462 370 -451T228 -412V-207Q286 -228 356 -239T506 -251Q569 -251 608 -238T665 -188T683 -83V705Q683 797 705 842T780 891L680 990V1092H926V-70Q926 -185 888 -273T763 -412T531 -462ZM284 891V1092H926L886
891H284ZM800 1274Q732 1274 684 1320T636 1441Q636 1518 684 1565T800 1612Q868 1612 916 1565T964 1441Q964 1366 916 1320T800 1274Z" />
<glyph unicode="k" horiz-adv-x="1200" d="M847 0L396 595L605 625L719 508L1144 0H847ZM189 0V1556H415V744L401 598V590L415 438V0H189ZM606 562L396 595L597 852L800 1091H1106L719 684L606 562Z" />
<glyph unicode="l" horiz-adv-x="1200" d="M782 -16Q688 -16 607 10T475 104T425 297V1264Q425 1305 443 1329T495 1358H121V1556H661L657 351Q657 251 695 222T824 193Q912 193 971 207T1077 243V32Q1021 11 942 -2T782 -16Z" />
<glyph unicode="m" horiz-adv-x="1200" d="M70 0V1092H244L263 784L249 753Q263 922 328 1018T514 1114Q579 1114 623 1083T688 981T705 788V788V0H513V781Q513 855 492 880T430 906Q394 906 348 881T262 768V0H70ZM953 0V781Q953 846 930 876T857 906Q802 906
764 872T705 769L673 688L695 763Q706 927 775 1020T959 1114Q1050 1114 1097 1046T1145 799V0H953Z" />
<glyph unicode="n" horiz-adv-x="1200" d="M183 0V1094H373L399 682L381 765Q404 938 489 1026T725 1114Q880 1114 957 1015T1035 723V0H811V646Q811 787 771 846T633 906Q557 906 497 867T407 765V0H183Z" />
<glyph unicode="o" horiz-adv-x="1200" d="M600 -15Q455 -15 347 49T179 240T119 552Q119 727 182 852T354 1045T600 1113Q749 1113 857 1046T1023 853T1081 552Q1081 367 1017 241T843 50T600 -15ZM600 178Q712 178 782 266T853 552Q853 734 786 827T600 920Q487
920 417 829T347 552Q347 365 417 272T600 178Z" />
<glyph unicode="p" horiz-adv-x="1200" d="M169 -403V1092H390L393 944V248L379 195L393 -1V-403H169ZM712 1112Q828 1112 914 1051T1047 870T1094 576Q1094 390 1034 259T875 58T657 -12Q596 -12 539 16T439 94T381 207L309 239L386 336Q397 276 431 241T510
190T593 174Q674 174 735 219T831 353T865 577Q865 743 809 833T621 923Q591 923 542 904T450 845T393 738L383 824L392 856Q401 925 446 983T560 1076T712 1112Z" />
<glyph unicode="q" horiz-adv-x="1200" d="M818 -403V893L819 1091H1042V-403H818ZM532 -12Q412 -12 323 54T185 246T136 554Q136 724 190 849T341 1043T563 1112Q634 1112 688 1084T778 1006T830 893L902 861L825 754Q814 814 782 851T709 905T633 922Q505 922
435 824T365 551Q365 376 426 274T611 171Q672 171 735 211T818 350L828 276L819 244Q810 176 769 118T666 24T532 -12Z" />
<glyph unicode="r" horiz-adv-x="1200" d="M121 0V176H900V0H121ZM116 888V1094H444V888H116ZM323 20V792Q323 842 343 862T411 888L323 972V1094H513L531 800Q554 896 607 966T734 1075T887 1114Q1020 1114 1091 1014T1155 704H937Q935 813 903 859T783 906Q715
906 646 857T547 745V259Q547 223 532 204T486 176L547 133V20H323Z" />
<glyph unicode="s" horiz-adv-x="1200" d="M619 -17Q536 -17 459 -2T317 50T211 152T157 319H390Q399 234 467 200T621 165Q723 165 782 193T841 294Q841 337 814 367T731 420T587 462Q514 478 445 498T320 554T231 649T198 802Q198 897 248 966T392 1073T617
1111Q719 1111 810 1080T961 980T1026 794H805Q800 842 776 872T712 916T616 930Q549 930 503 916T433 875T409 805Q409 764 439 735T529 683T678 639Q733 626 799 607T925 553T1023 461T1062 317Q1062 163 957 73T619 -17Z" />
<glyph unicode="t" horiz-adv-x="1200" d="M719 -16Q636 -16 558 12T430 108T379 297V736Q379 757 388 792T421 857T488 892L379 1048L384 1076L437 1474H613V351Q613 249 655 221T791 193Q846 193 890 199T971 217T1043 243V32Q973 7 898 -4T719 -16ZM144 892V1092H962V892H144Z"
/>
<glyph unicode="u" horiz-adv-x="1200" d="M494 -22Q358 -22 270 77T182 359V1092H405V396Q405 281 446 234T583 186Q660 186 722 230T810 329V1092H1035V0H844L818 412L836 329Q824 239 789 159T684 29T494 -22Z" />
<glyph unicode="v" horiz-adv-x="1200" d="M468 0L81 1091H340L520 467L588 223H613L683 469L861 1091H1119L734 0H468Z" />
<glyph unicode="w" horiz-adv-x="1200" d="M223 0L-11 1091H209L294 546L333 194L341 193L391 547L465 954H735L807 545L859 181L868 182L897 545L993 1091H1211L978 0H751L647 505L606 821H595L552 504L450 0H223Z" />
<glyph unicode="x" horiz-adv-x="1200" d="M92 0L505 611L507 476L109 1091H355L538 786L602 665L663 783L839 1091H1095L688 476L691 611L1108 0H856L658 311L596 418L533 306L347 0H92Z" />
<glyph unicode="y" horiz-adv-x="1200" d="M209 -431V-217H294Q370 -217 412 -204T474 -165T506 -100Q517 -59 530 -35T566 0H493L116 1091H370L503 606L621 223H630L739 605L872 1091H1125L750 0Q716 -99 679 -179T591 -315T470 -401T294 -431H209Z" />
<glyph unicode="z" horiz-adv-x="1200" d="M134 0L663 763Q701 817 737 854T817 915L845 912Q784 909 721 905T602 901H185V1091H1121L605 318Q567 260 521 221T426 151L415 181Q471 183 530 187T641 191H1092V0H134Z" />
<glyph unicode="{" horiz-adv-x="1200" d="M638 -260Q583 -260 524 -238T420 -169T358 -54T370 109L471 434Q487 486 474 522T420 586Q403 598 381 607T318 623T205 638V794Q242 799 276 803T342 813T408 832Q461 851 479 882T471 994L370 1306Q341 1397 357 1466T419
1582T524 1652T638 1676H980V1488H732Q635 1488 587 1436T578 1276L695 966Q722 895 705 844T619 761T424 713Q552 698 619 667T703 586T694 463L578 139Q552 65 565 19T623 -50T732 -72H980V-260H638Z" />
<glyph unicode="|" horiz-adv-x="1200" d="M501 -250V1700H700V-250H501Z" />
<glyph unicode="}" horiz-adv-x="1200" d="M562 -260H220V-72H468Q533 -72 577 -50T635 18T622 139L506 463Q480 536 496 586T580 667T776 713Q651 729 582 761T496 844T505 966L622 1276Q663 1383 615 1435T468 1488H220V1676H562Q617 1676 676 1653T780 1582T842
1466T830 1306L729 994Q703 914 721 883T792 832Q825 820 857 814T924 803T995 794V638Q924 631 883 624T820 607T780 586Q740 558 727 522T729 434L830 109Q859 16 842 -53T780 -169T676 -237T562 -260Z" />
<glyph unicode="~" horiz-adv-x="1200" d="M812 495Q754 495 708 518T624 575T550 643T479 700T402 723Q362 723 342 694T318 614T324 495H145Q130 606 142 686T188 818T273 895T388 920Q457 920 509 897T600 840T672 772T735 714T797 691Q843 691 867 723T892
814T863 950H1050Q1088 828 1080 742T1031 601T933 521T812 495Z" />
<glyph unicode="&#xa0;" horiz-adv-x="1200" />
<glyph unicode="&#xa1;" horiz-adv-x="1200" d="M516 1093H684L733 418L756 -48H444L467 418L516 1093ZM600 1680Q677 1680 729 1627T781 1490Q781 1408 729 1355T600 1301Q524 1301 472 1354T419 1490Q419 1574 471 1627T600 1680Z" />
<glyph unicode="&#xa2;" horiz-adv-x="1200" d="M647 -19Q491 -19 379 52T207 252T146 549Q146 727 207 853T377 1045T625 1112Q768 1112 866 1053T1013 898T1060 686H842Q842 738 829 781T788 856T721 905T626 923Q489 924 430 822T371 554Q371 363 441 267T653
171Q706 171 749 188T818 238T848 313H1059Q1062 209 1003 135T849 21T647 -19ZM533 1051V1257H732V1051H533ZM533 -164V42H732V-164H533Z" />
<glyph unicode="&#xa3;" horiz-adv-x="1200" d="M85 0V190Q184 237 244 300T331 427T358 541Q358 610 340 660T296 751T243 836T198 934T180 1068Q180 1197 235 1290T397 1433T656 1484Q801 1484 900 1432T1050 1286T1101 1069Q1101 1056 1100 1034T1097 989H872Q874
1008 874 1027T875 1070Q875 1128 854 1176T782 1254T648 1284Q574 1284 519 1261T433 1191T402 1070Q402 991 425 932T478 820T531 707T554 562Q554 463 510 390T424 282Q371 236 304 213T191 190L85 0ZM85 0V190H1109V0H85ZM162 554V724H936V554H162Z" />
<glyph unicode="&#xa4;" horiz-adv-x="1200" d="M600 343Q488 343 396 397T250 545T195 753Q195 871 248 963T393 1108T600 1161Q713 1161 805 1108T951 962T1005 753Q1005 634 952 542T808 396T600 343ZM600 542Q680 542 737 602T794 753Q794 844 737 903T600
962Q512 962 459 904T406 753Q406 664 460 603T600 542ZM284 244L134 395L378 641L528 490L284 244ZM916 244L672 490L822 641L1066 395L916 244ZM378 847L134 1093L284 1244L528 998L378 847ZM822 847L672 998L916 1244L1066 1093L822 847Z" />
<glyph unicode="&#xa5;" horiz-adv-x="1200" d="M479 597L33 1454H277L445 1098L591 779H608L755 1097L923 1454H1167L721 597H479ZM489 0V713H710V0H489ZM160 592V768H1040V592H160ZM160 196V372H1040V196H160Z" />
<glyph unicode="&#xa6;" horiz-adv-x="1200" d="M501 843V1700H700V843H501ZM501 -250V541H700V-250H501Z" />
<glyph unicode="&#xa7;" horiz-adv-x="1200" d="M596 -17Q471 -17 371 18T209 128T142 319H369Q384 238 439 202T601 165Q661 165 713 177T796 217T828 293Q828 338 798 363T712 407T575 449Q489 474 417 501T292 563T210 645T181 756Q181 859 264 927T531 995L576
983Q524 983 485 961T425 902T403 819Q403 769 430 737T513 681T648 633Q718 613 789 591T919 534T1015 446T1052 308Q1052 206 995 133T835 22T596 -17ZM662 607L626 632Q721 632 777 679T834 794Q834 845 803 871T717 914T588 953Q479 986 392 1028T252 1135T200
1302Q200 1399 249 1469T387 1577T601 1615Q708 1615 795 1583T939 1479T1011 1288H790Q775 1345 747 1376T680 1421T595 1434Q509 1434 465 1400T421 1306Q421 1263 446 1235T524 1185T662 1137Q728 1118 797 1095T924 1040T1019 960T1056 841Q1056 759 1005 708T865
632T662 607Z" />
<glyph unicode="&#xa8;" horiz-adv-x="1200" d="M385 1274Q330 1274 287 1317T244 1434Q244 1504 287 1548T385 1592Q443 1592 485 1548T527 1434Q527 1360 485 1317T385 1274ZM815 1274Q758 1274 716 1317T673 1434Q673 1504 715 1548T815 1592Q871 1592 913
1548T956 1434Q956 1360 914 1317T815 1274Z" />
<glyph unicode="&#xa9;" horiz-adv-x="1200" d="M600 266Q327 266 182 421T37 870Q37 1158 182 1311T601 1464Q874 1464 1019 1311T1164 870Q1164 577 1019 422T600 266ZM600 362Q822 362 940 492T1058 868Q1058 1111 941 1239T601 1368Q379 1368 261 1240T143
868Q143 623 260 493T600 362ZM605 510Q452 510 375 608T297 869Q297 1032 377 1124T606 1217Q760 1217 829 1140T894 948H710Q710 1016 684 1039T608 1062Q538 1062 508 1019T477 871Q477 757 509 714T611 671Q646 671 681 688T714 776H895Q896 655 816 583T605
510Z" />
<glyph unicode="&#xaa;" horiz-adv-x="1200" d="M510 583Q371 583 288 648T205 823Q205 941 272 998T455 1078Q506 1088 570 1095T693 1106T780 1112V1144Q780 1230 743 1270T615 1310Q560 1310 518 1297T452 1250T427 1152H234Q224 1269 270 1342T409 1449T626
1483Q723 1483 804 1456T934 1359T983 1164V593H777L780 791Q764 703 697 643T510 583ZM569 734Q611 734 656 748T736 788T780 851V1004Q755 1001 703 994T618 979Q528 961 479 931T429 843Q429 793 474 764T569 734Z" />
<glyph unicode="&#xab;" horiz-adv-x="1200" d="M388 173L145 548V558L388 933H625L442 660Q414 618 394 593T319 553Q373 539 394 514T442 448L625 173H388ZM827 173L584 548V558L827 933H1064L881 660Q853 618 833 593T758 553Q812 539 833 514T881 448L1064 173H827Z" />
<glyph unicode="&#xac;" horiz-adv-x="1200" d="M827 319V548Q827 601 845 627T915 660H181V862H1019V319H827Z" />
<glyph unicode="&#xad;" horiz-adv-x="1200" d="M219 636V818H981V636H219Z" />
<glyph unicode="&#xae;" horiz-adv-x="1200" d="M352 522V1199H517L514 522H352ZM716 522L606 761H507L475 767L488 882V893H596Q650 893 677 915T704 986Q704 1036 677 1051T617 1066H515L457 1120L477 1199Q496 1199 516 1199T566 1199T639 1199Q748 1199 809
1148T872 1001Q873 938 845 886T769 804T665 779L621 797Q666 797 699 794T753 782T785 752L909 522H716ZM600 266Q327 266 182 421T37 870Q37 1158 182 1311T601 1464Q874 1464 1019 1311T1164 870Q1164 577 1019 422T600 266ZM600 362Q822 362 940 492T1058 868Q1058
1111 941 1239T601 1368Q379 1368 261 1240T143 868Q143 623 260 493T600 362Z" />
<glyph unicode="&#xaf;" horiz-adv-x="1200" d="M542 1294V1486H1094L1091 1294H542Z" />
<glyph unicode="&#xb0;" horiz-adv-x="1200" d="M600 951Q459 951 376 1034T293 1259Q293 1400 376 1482T602 1565Q743 1565 825 1483T908 1259Q908 1117 825 1034T600 951ZM600 1091Q671 1091 713 1136T755 1259Q755 1336 713 1381T600 1426Q530 1427 488 1382T446
1259Q446 1182 488 1137T600 1091Z" />
<glyph unicode="&#xb1;" horiz-adv-x="1200" d="M138 23V225H1062V23H138ZM493 223V548Q493 591 510 621T567 660L493 728V849V1293H709V223H493ZM94 659V857H1106V659H94Z" />
<glyph unicode="&#xb2;" horiz-adv-x="1200" d="M185 857Q229 899 267 935T345 1007T435 1089T552 1194Q627 1260 679 1306T763 1385T809 1448T824 1512Q824 1577 770 1610T627 1644Q518 1644 459 1593T413 1447H243Q221 1607 324 1701T628 1796Q802 1796 901
1723T1001 1526Q1001 1471 984 1423T922 1322T796 1200Q714 1131 666 1090T593 1027T554 991T527 963Q550 985 586 997T718 1009H1012V857H185Z" />
<glyph unicode="&#xb3;" horiz-adv-x="1200" d="M603 847Q389 847 272 926T163 1144H350Q346 1065 409 1028T595 991Q707 991 777 1023T848 1123Q848 1213 782 1242T593 1272H456V1406H593Q685 1406 742 1445T799 1544Q799 1608 745 1631T597 1654Q490 1654 437
1621T389 1518H203Q202 1656 301 1726T600 1797Q775 1797 879 1737T984 1560Q984 1471 920 1419T736 1353Q882 1346 957 1288T1033 1115Q1033 991 915 919T603 847Z" />
<glyph unicode="&#xb4;" horiz-adv-x="1200" d="M583 1192H383L693 1823H917L583 1192Z" />
<glyph unicode="&#xb5;" horiz-adv-x="1200" d="M615 -22Q572 -22 537 -8T477 33T434 100T408 192L182 359V1092H408V416Q408 358 421 315T461 243T525 200T613 186Q655 186 694 206T764 260T812 329V1092H1038V0H846L820 412L838 329Q827 136 769 57T615 -22ZM182
-324V359L408 416V-324H182Z" />
<glyph unicode="&#xb6;" horiz-adv-x="1200" d="M545 0V417Q545 475 554 507T587 555T658 574H507Q373 574 274 632T122 795T68 1040Q68 1237 175 1345T476 1454H738V0H545ZM892 0V1454H1085V0H892Z" />
<glyph unicode="&#xb7;" horiz-adv-x="1200" d="M601 594Q524 594 472 647T419 784Q419 867 471 920T601 973Q677 973 729 920T781 784Q781 700 729 647T601 594Z" />
<glyph unicode="&#xb8;" horiz-adv-x="1200" d="M876 -462Q805 -462 763 -452T671 -421L672 -262Q698 -275 732 -283T810 -291Q872 -291 891 -268T911 -199Q911 -138 881 -94T786 0H962Q996 -24 1032 -58T1092 -141T1117 -253Q1117 -348 1050 -405T876 -462Z" />
<glyph unicode="&#xb9;" horiz-adv-x="1200" d="M565 903V1500Q565 1538 568 1569T580 1660L583 1786H758V903H565ZM226 857V1009H1040V857H226ZM168 1519V1677Q234 1665 298 1667T419 1684T518 1725T583 1786L580 1654Q568 1599 502 1561T346 1509T168 1519Z" />
<glyph unicode="&#xba;" horiz-adv-x="1200" d="M598 581Q406 581 292 697T178 1035Q178 1174 232 1274T383 1429T601 1483Q803 1483 915 1364T1027 1035Q1027 888 971 787T818 633T598 581ZM601 757Q696 757 755 820T815 1035Q815 1174 758 1240T598 1307Q506
1307 448 1241T390 1035Q390 892 448 825T601 757Z" />
<glyph unicode="&#xbb;" horiz-adv-x="1200" d="M126 173L309 448Q336 489 357 514T432 553Q378 567 358 592T309 660L126 933H363L606 558V548L363 173H126ZM572 173L755 448Q782 489 803 514T878 553Q824 567 804 592T755 660L572 933H809L1052 558V548L809 173H572Z" />
<glyph unicode="&#xbc;" horiz-adv-x="1200" d="M567 870V1435Q567 1470 570 1500T581 1585L584 1703H749V870H567ZM247 827V970H1015V827H247ZM193 1453V1601Q276 1584 355 1592T495 1630T584 1703L581 1585Q570 1531 508 1494T361 1444T193 1453ZM189 -125L571
623H774L457 40L433 7H1060L1059 -125H189ZM743 -263L744 -37L802 7Q771 7 757 30T743 109V271L921 274V-263H743Z" />
<glyph unicode="&#xbd;" horiz-adv-x="1200" d="M567 870V1435Q567 1470 570 1500T581 1585L584 1703H749V870H567ZM247 827V970H1015V827H247ZM193 1453V1601Q276 1584 355 1592T495 1630T584 1703L581 1585Q570 1531 508 1494T361 1444T193 1453ZM189 -263Q232
-223 269 -190T347 -121T436 -44T553 55Q627 118 678 161T762 235T808 295T823 355Q823 416 769 448T626 480Q519 480 460 432T414 294H246Q224 445 326 534T628 623Q800 623 899 554T998 368Q998 316 979 271T914 176T787 61Q706 -5 659 -43T586 -103T547 -136T520
-163Q543 -143 579 -132T709 -120H1008V-263H189Z" />
<glyph unicode="&#xbe;" horiz-adv-x="1200" d="M603 817Q401 817 290 892T188 1097H364Q360 1022 419 988T595 953Q701 953 767 983T834 1077Q834 1163 771 1190T593 1218H464V1344H593Q679 1344 733 1381T788 1475Q788 1535 737 1556T597 1578Q496 1578 446
1547T401 1450H225Q224 1581 317 1647T600 1713Q765 1713 863 1656T962 1490Q962 1405 901 1356T728 1294Q865 1287 936 1232T1008 1070Q1008 952 897 885T603 817ZM189 -125L571 623H774L457 40L433 7H1060L1059 -125H189ZM743 -263L744 -37L802 7Q771 7 757 30T743
109V271L921 274V-263H743Z" />
<glyph unicode="&#xbf;" horiz-adv-x="1200" d="M720 1092Q726 1075 730 1021T735 928Q735 863 708 811T638 716T547 632T455 551T385 464T358 359Q358 306 385 258T463 179T586 148Q699 148 760 190T841 312T852 500L1086 499Q1103 393 1084 294T1006 115T844
-12T589 -59Q465 -59 375 -25T225 65T137 189T108 327Q108 433 139 506T218 630T322 720T425 797T505 879T536 987Q536 1044 536 1062T533 1092H720ZM606 1679Q683 1679 735 1626T787 1489Q787 1407 735 1354T606 1300Q530 1300 478 1353T425 1489Q425 1573 477
1626T606 1679Z" />
<glyph unicode="&#xc0;" horiz-adv-x="1200" d="M-9 0L457 1454H745L1209 0H974L845 432L973 343H278L353 533H915L844 435L691 951L604 1284H596L511 951L227 0H-9ZM489 1591L237 1912H504L722 1591H489Z" />
<glyph unicode="&#xc1;" horiz-adv-x="1200" d="M-9 0L457 1454H745L1209 0H974L845 432L973 343H278L353 533H915L844 435L691 951L604 1284H596L511 951L227 0H-9ZM721 1591H488L706 1912H973L721 1591Z" />
<glyph unicode="&#xc2;" horiz-adv-x="1200" d="M-9 0L457 1454H745L1209 0H974L845 432L973 343H278L353 533H915L844 435L691 951L604 1284H596L511 951L227 0H-9ZM260 1591L498 1912H704L942 1591H758L601 1775L445 1591H260Z" />
<glyph unicode="&#xc3;" horiz-adv-x="1200" d="M-9 0L457 1454H745L1209 0H974L845 432L973 343H278L353 533H915L844 435L691 951L604 1284H596L511 951L227 0H-9ZM752 1564Q685 1564 643 1589T573 1647T521 1706T463 1731Q414 1731 399 1682T398 1563H232Q213
1718 272 1802T451 1887Q518 1887 559 1862T628 1804T680 1745T738 1720Q787 1720 803 1765T806 1887H971Q990 1726 931 1645T752 1564Z" />
<glyph unicode="&#xc4;" horiz-adv-x="1200" d="M-9 0L457 1454H745L1209 0H974L845 432L973 343H278L353 533H915L844 435L691 951L604 1284H596L511 951L227 0H-9ZM386 1575Q331 1575 288 1618T245 1735Q245 1805 288 1849T386 1893Q444 1893 486 1849T528 1735Q528
1661 486 1618T386 1575ZM816 1575Q759 1575 717 1618T674 1735Q674 1805 716 1849T816 1893Q872 1893 914 1849T957 1735Q957 1661 915 1618T816 1575Z" />
<glyph unicode="&#xc5;" horiz-adv-x="1200" d="M-9 0L457 1454H745L1209 0H974L845 432L973 343H278L353 533H915L844 435L691 951L604 1284H596L511 951L227 0H-9ZM603 1434Q488 1434 420 1499T351 1674Q351 1784 419 1848T603 1912Q719 1912 786 1848T854 1674Q854
1564 787 1499T603 1434ZM603 1566Q651 1566 679 1595T708 1674Q708 1724 680 1753T603 1783Q555 1783 527 1754T499 1674Q499 1624 527 1595T603 1566Z" />
<glyph unicode="&#xc6;" horiz-adv-x="1200" d="M-109 0L447 1454H584L615 1427L592 1287H575L527 1141L104 0H-109ZM584 0V1454H1185V1244H702L775 1357V789L702 858H1145V651H725L775 729V98L702 212H1194V0H584ZM140 372L205 570H627V372H140Z" />
<glyph unicode="&#xc7;" horiz-adv-x="1200" d="M608 -29Q450 -29 334 65T154 330T90 729Q90 962 156 1130T343 1390T625 1482Q764 1482 867 1427T1029 1253T1092 942H857Q851 1065 825 1138T750 1244T629 1277Q525 1277 456 1219T353 1040T319 729Q319 478 397
327T623 175Q705 175 755 203T830 284T860 413H1085Q1079 286 1040 201T935 65T786 -7T608 -29ZM671 -464Q622 -464 576 -454T480 -422L481 -260Q508 -274 540 -282T603 -290Q641 -290 663 -268T686 -206Q686 -151 638 -100T489 0H713Q807 -41 852 -106T898 -249Q898
-346 836 -405T671 -464Z" />
<glyph unicode="&#xc8;" horiz-adv-x="1200" d="M153 0V1454H1011V1264H275L375 1357V789L275 858H934V668H320L375 746V78L275 195H1047V0H153ZM742 1591L490 1912H757L975 1591H742Z" />
<glyph unicode="&#xc9;" horiz-adv-x="1200" d="M153 0V1454H1011V1264H275L375 1357V789L275 858H934V668H320L375 746V78L275 195H1047V0H153ZM974 1591H741L959 1912H1226L974 1591Z" />
<glyph unicode="&#xca;" horiz-adv-x="1200" d="M153 0V1454H1011V1264H275L375 1357V789L275 858H934V668H320L375 746V78L275 195H1047V0H153ZM513 1591L751 1912H957L1195 1591H1011L854 1775L698 1591H513Z" />
<glyph unicode="&#xcb;" horiz-adv-x="1200" d="M153 0V1454H1011V1264H275L375 1357V789L275 858H934V668H320L375 746V78L275 195H1047V0H153ZM639 1575Q584 1575 541 1618T498 1735Q498 1805 541 1849T639 1893Q697 1893 739 1849T781 1735Q781 1661 739 1618T639
1575ZM1069 1575Q1012 1575 970 1618T927 1735Q927 1805 969 1849T1069 1893Q1125 1893 1167 1849T1210 1735Q1210 1661 1168 1618T1069 1575Z" />
<glyph unicode="&#xcc;" horiz-adv-x="1200" d="M155 0V206H485V1165Q485 1197 499 1218T538 1248H155V1454H1045V1248H714V289Q714 258 701 236T661 206H1045V0H155ZM488 1591L236 1912H503L721 1591H488Z" />
<glyph unicode="&#xcd;" horiz-adv-x="1200" d="M155 0V206H485V1165Q485 1197 499 1218T538 1248H155V1454H1045V1248H714V289Q714 258 701 236T661 206H1045V0H155ZM720 1591H487L705 1912H972L720 1591Z" />
<glyph unicode="&#xce;" horiz-adv-x="1200" d="M155 0V206H485V1165Q485 1197 499 1218T538 1248H155V1454H1045V1248H714V289Q714 258 701 236T661 206H1045V0H155ZM259 1591L497 1912H703L941 1591H757L600 1775L444 1591H259Z" />
<glyph unicode="&#xcf;" horiz-adv-x="1200" d="M155 0V206H485V1165Q485 1197 499 1218T538 1248H155V1454H1045V1248H714V289Q714 258 701 236T661 206H1045V0H155ZM385 1575Q330 1575 287 1618T244 1735Q244 1805 287 1849T385 1893Q443 1893 485 1849T527
1735Q527 1661 485 1618T385 1575ZM815 1575Q758 1575 716 1618T673 1735Q673 1805 715 1849T815 1893Q871 1893 913 1849T956 1735Q956 1661 914 1618T815 1575Z" />
<glyph unicode="&#xd0;" horiz-adv-x="1200" d="M357 0L312 208H509Q625 208 714 264T854 436T905 734Q905 925 859 1037T724 1197T508 1246H304L357 1454H492Q793 1454 962 1283T1132 736Q1132 493 1048 330T819 83T494 0H357ZM135 0V1454H357V0H135ZM282 625V833H856L853
625H282Z" />
<glyph unicode="&#xd1;" horiz-adv-x="1200" d="M130 0V1454H396L763 572L881 266H889L854 582V1454H1070V0H804L441 873L326 1174H318L346 849V0H130ZM1005 1564Q938 1564 896 1589T826 1647T774 1706T716 1731Q667 1731 652 1682T651 1563H485Q466 1718 525
1802T704 1887Q771 1887 812 1862T881 1804T933 1745T991 1720Q1040 1720 1056 1765T1059 1887H1224Q1243 1726 1184 1645T1005 1564Z" />
<glyph unicode="&#xd2;" horiz-adv-x="1200" d="M600 -30Q441 -30 324 57T143 315T79 735Q79 1097 220 1290T600 1483Q841 1483 981 1290T1121 735Q1121 486 1058 316T878 58T600 -30ZM600 177Q741 177 817 305T894 735Q894 1029 818 1152T600 1276Q461 1276 384
1153T306 735Q306 434 383 306T600 177ZM488 1591L236 1912H503L721 1591H488Z" />
<glyph unicode="&#xd3;" horiz-adv-x="1200" d="M600 -30Q441 -30 324 57T143 315T79 735Q79 1097 220 1290T600 1483Q841 1483 981 1290T1121 735Q1121 486 1058 316T878 58T600 -30ZM600 177Q741 177 817 305T894 735Q894 1029 818 1152T600 1276Q461 1276 384
1153T306 735Q306 434 383 306T600 177ZM720 1591H487L705 1912H972L720 1591Z" />
<glyph unicode="&#xd4;" horiz-adv-x="1200" d="M600 -30Q441 -30 324 57T143 315T79 735Q79 1097 220 1290T600 1483Q841 1483 981 1290T1121 735Q1121 486 1058 316T878 58T600 -30ZM600 177Q741 177 817 305T894 735Q894 1029 818 1152T600 1276Q461 1276 384
1153T306 735Q306 434 383 306T600 177ZM259 1591L497 1912H703L941 1591H757L600 1775L444 1591H259Z" />
<glyph unicode="&#xd5;" horiz-adv-x="1200" d="M600 -30Q441 -30 324 57T143 315T79 735Q79 1097 220 1290T600 1483Q841 1483 981 1290T1121 735Q1121 486 1058 316T878 58T600 -30ZM600 177Q741 177 817 305T894 735Q894 1029 818 1152T600 1276Q461 1276 384
1153T306 735Q306 434 383 306T600 177ZM751 1564Q684 1564 642 1589T572 1647T520 1706T462 1731Q413 1731 398 1682T397 1563H231Q212 1718 271 1802T450 1887Q517 1887 558 1862T627 1804T679 1745T737 1720Q786 1720 802 1765T805 1887H970Q989 1726 930 1645T751
1564Z" />
<glyph unicode="&#xd6;" horiz-adv-x="1200" d="M600 -30Q441 -30 324 57T143 315T79 735Q79 1097 220 1290T600 1483Q841 1483 981 1290T1121 735Q1121 486 1058 316T878 58T600 -30ZM600 177Q741 177 817 305T894 735Q894 1029 818 1152T600 1276Q461 1276 384
1153T306 735Q306 434 383 306T600 177ZM385 1575Q330 1575 287 1618T244 1735Q244 1805 287 1849T385 1893Q443 1893 485 1849T527 1735Q527 1661 485 1618T385 1575ZM815 1575Q758 1575 716 1618T673 1735Q673 1805 715 1849T815 1893Q871 1893 913 1849T956
1735Q956 1661 914 1618T815 1575Z" />
<glyph unicode="&#xd7;" horiz-adv-x="1200" d="M365 354L225 499L503 771L582 847L846 1141L986 998L699 715L633 650L365 354ZM845 354L578 650L501 727L225 997L367 1141L628 847L703 777L986 500L845 354Z" />
<glyph unicode="&#xd8;" horiz-adv-x="1200" d="M600 -30Q441 -30 324 57T143 315T79 735Q79 1097 220 1290T600 1483Q841 1483 981 1290T1121 735Q1121 486 1058 316T878 58T600 -30ZM600 177Q741 177 817 305T894 735Q894 1029 818 1152T600 1276Q461 1276 384
1153T306 735Q306 434 383 306T600 177ZM98 -78L217 159L254 201L803 1308L816 1352L907 1533H1113L1003 1315L964 1268L405 140L394 100L304 -78H98Z" />
<glyph unicode="&#xd9;" horiz-adv-x="1200" d="M605 -20Q460 -20 350 32T177 203T115 516V1456H339V554Q339 451 359 381T415 268T500 206T606 187Q659 187 705 206T786 267T841 380T861 554V1454H1085V516Q1085 321 1022 203T851 33T605 -20ZM489 1591L237 1912H504L722
1591H489Z" />
<glyph unicode="&#xda;" horiz-adv-x="1200" d="M605 -20Q460 -20 350 32T177 203T115 516V1456H339V554Q339 451 359 381T415 268T500 206T606 187Q659 187 705 206T786 267T841 380T861 554V1454H1085V516Q1085 321 1022 203T851 33T605 -20ZM721 1591H488L706
1912H973L721 1591Z" />
<glyph unicode="&#xdb;" horiz-adv-x="1200" d="M605 -20Q460 -20 350 32T177 203T115 516V1456H339V554Q339 451 359 381T415 268T500 206T606 187Q659 187 705 206T786 267T841 380T861 554V1454H1085V516Q1085 321 1022 203T851 33T605 -20ZM260 1591L498 1912H704L942
1591H758L601 1775L445 1591H260Z" />
<glyph unicode="&#xdc;" horiz-adv-x="1200" d="M605 -20Q460 -20 350 32T177 203T115 516V1456H339V554Q339 451 359 381T415 268T500 206T606 187Q659 187 705 206T786 267T841 380T861 554V1454H1085V516Q1085 321 1022 203T851 33T605 -20ZM386 1575Q331 1575
288 1618T245 1735Q245 1805 288 1849T386 1893Q444 1893 486 1849T528 1735Q528 1661 486 1618T386 1575ZM816 1575Q759 1575 717 1618T674 1735Q674 1805 716 1849T816 1893Q872 1893 914 1849T957 1735Q957 1661 915 1618T816 1575Z" />
<glyph unicode="&#xdd;" horiz-adv-x="1200" d="M495 468L21 1454H274L445 1068L590 724H608L754 1067L927 1454H1179L706 468H495ZM491 0V591H710V0H491ZM720 1591H487L705 1912H972L720 1591Z" />
<glyph unicode="&#xde;" horiz-adv-x="1200" d="M450 259Q412 259 392 276T372 314L303 407L373 463H642Q747 463 810 493T901 584T929 739Q929 887 855 941T625 996H367L281 1205Q316 1205 365 1205T468 1205T568 1205T644 1205Q901 1205 1029 1096T1157 743Q1157
653 1132 567T1049 411T896 300T660 259H450ZM149 0V1454H373V0H149Z" />
<glyph unicode="&#xdf;" horiz-adv-x="1200" d="M129 0V1082Q129 1259 190 1370T357 1534T596 1586Q738 1586 831 1534T970 1395T1016 1205Q1016 1146 993 1083T902 967T703 885Q828 867 906 823T1027 721T1085 601T1101 485Q1101 343 1044 231T877 55T603 -10Q573
-10 537 -9T463 -6V199Q492 192 513 190T569 188Q738 188 799 265T860 476Q860 619 778 685T535 752H491V951H534Q675 951 737 1008T799 1185Q799 1303 746 1348T596 1393Q507 1393 453 1358T375 1251T350 1071V0H129Z" />
<glyph unicode="&#xe0;" horiz-adv-x="1200" d="M480 -12Q330 -12 240 71T150 296Q150 417 229 496T464 603Q538 616 610 625T739 639T821 647V731Q821 839 771 883T616 928Q512 928 453 887T395 720H192Q181 841 232 929T382 1064T617 1112Q819 1112 926 1011T1034
706V0H821V243Q802 170 752 113T631 22T480 -12ZM556 162Q610 162 668 183T769 239T821 313V517Q807 516 769 511T688 499T612 485Q486 460 437 421T387 312Q387 243 430 203T556 162ZM751 1284H514L278 1614H533L751 1284Z" />
<glyph unicode="&#xe1;" horiz-adv-x="1200" d="M480 -12Q330 -12 240 71T150 296Q150 417 229 496T464 603Q538 616 610 625T739 639T821 647V731Q821 839 771 883T616 928Q512 928 453 887T395 720H192Q181 841 232 929T382 1064T617 1112Q819 1112 926 1011T1034
706V0H821V243Q802 170 752 113T631 22T480 -12ZM556 162Q610 162 668 183T769 239T821 313V517Q807 516 769 511T688 499T612 485Q486 460 437 421T387 312Q387 243 430 203T556 162ZM520 1284L738 1614H995L759 1284H520Z" />
<glyph unicode="&#xe2;" horiz-adv-x="1200" d="M480 -12Q330 -12 240 71T150 296Q150 417 229 496T464 603Q538 616 610 625T739 639T821 647V731Q821 839 771 883T616 928Q512 928 453 887T395 720H192Q181 841 232 929T382 1064T617 1112Q819 1112 926 1011T1034
706V0H821V243Q802 170 752 113T631 22T480 -12ZM556 162Q610 162 668 183T769 239T821 313V517Q807 516 769 511T688 499T612 485Q486 460 437 421T387 312Q387 243 430 203T556 162ZM284 1283L512 1613H720L948 1283H763L616 1470L468 1283H284Z" />
<glyph unicode="&#xe3;" horiz-adv-x="1200" d="M480 -12Q330 -12 240 71T150 296Q150 417 229 496T464 603Q538 616 610 625T739 639T821 647V731Q821 839 771 883T616 928Q512 928 453 887T395 720H192Q181 841 232 929T382 1064T617 1112Q819 1112 926 1011T1034
706V0H821V243Q802 170 752 113T631 22T480 -12ZM556 162Q610 162 668 183T769 239T821 313V517Q807 516 769 511T688 499T612 485Q486 460 437 421T387 312Q387 243 430 203T556 162ZM767 1274Q700 1274 658 1299T589 1357T538 1416T483 1441Q431 1441 415 1392T413
1273H245Q226 1428 285 1512T466 1597Q533 1597 574 1572T642 1514T693 1455T747 1430Q800 1430 817 1475T821 1597H986Q1005 1436 946 1355T767 1274Z" />
<glyph unicode="&#xe4;" horiz-adv-x="1200" d="M480 -12Q330 -12 240 71T150 296Q150 417 229 496T464 603Q538 616 610 625T739 639T821 647V731Q821 839 771 883T616 928Q512 928 453 887T395 720H192Q181 841 232 929T382 1064T617 1112Q819 1112 926 1011T1034
706V0H821V243Q802 170 752 113T631 22T480 -12ZM556 162Q610 162 668 183T769 239T821 313V517Q807 516 769 511T688 499T612 485Q486 460 437 421T387 312Q387 243 430 203T556 162ZM401 1274Q346 1274 303 1317T260 1434Q260 1504 303 1548T401 1592Q459 1592
501 1548T543 1434Q543 1360 501 1317T401 1274ZM831 1274Q774 1274 732 1317T689 1434Q689 1504 731 1548T831 1592Q887 1592 929 1548T972 1434Q972 1360 930 1317T831 1274Z" />
<glyph unicode="&#xe5;" horiz-adv-x="1200" d="M480 -12Q330 -12 240 71T150 296Q150 417 229 496T464 603Q538 616 610 625T739 639T821 647V731Q821 839 771 883T616 928Q512 928 453 887T395 720H192Q181 841 232 929T382 1064T617 1112Q819 1112 926 1011T1034
706V0H821V243Q802 170 752 113T631 22T480 -12ZM556 162Q610 162 668 183T769 239T821 313V517Q807 516 769 511T688 499T612 485Q486 460 437 421T387 312Q387 243 430 203T556 162ZM618 1260Q503 1260 435 1325T366 1500Q366 1610 434 1674T618 1738Q734 1738
801 1674T869 1500Q869 1390 802 1325T618 1260ZM618 1392Q666 1392 694 1421T723 1500Q723 1550 695 1579T618 1609Q570 1609 542 1580T514 1500Q514 1450 542 1421T618 1392Z" />
<glyph unicode="&#xe6;" horiz-adv-x="1200" d="M293 -13Q179 -13 109 69T39 300Q39 416 89 489T249 602Q317 627 380 635T488 647V694Q488 814 463 868T370 922Q333 922 309 904T273 844T261 725H60Q50 852 86 938T195 1068T364 1112Q447 1112 514 1070T606 909Q641
1024 711 1068T864 1113Q1016 1113 1096 984T1176 607Q1176 573 1175 551T1172 517H682Q685 402 702 325T753 210T833 171Q891 171 923 216T959 310H1163Q1161 213 1122 141T1017 28T865 -13Q793 -13 729 19T617 117T544 278Q524 139 465 63T293 -13ZM347 162Q378
162 410 180T466 233T497 313V517Q476 515 445 506T383 485Q317 459 285 424T252 312Q252 239 278 201T347 162ZM680 604Q685 645 708 660T774 676H967Q967 796 939 858T840 920Q758 920 721 839T680 604Z" />
<glyph unicode="&#xe7;" horiz-adv-x="1200" d="M647 -19Q491 -19 379 52T207 252T146 549Q146 727 207 853T377 1045T625 1112Q768 1112 866 1053T1013 898T1060 686H842Q842 738 829 781T788 856T721 905T626 923Q489 924 430 822T371 554Q371 363 441 267T653
171Q706 171 749 188T818 238T848 313H1059Q1062 209 1003 135T849 21T647 -19ZM879 -462Q808 -462 766 -452T674 -421L675 -262Q701 -275 735 -283T813 -291Q875 -291 894 -268T914 -199Q914 -138 884 -94T789 0H965Q999 -24 1035 -58T1095 -141T1120 -253Q1120
-348 1053 -405T879 -462Z" />
<glyph unicode="&#xe8;" horiz-adv-x="1200" d="M640 -15Q497 -15 385 49T207 240T142 549Q142 729 204 855T372 1047T612 1113Q815 1113 941 982T1067 606Q1067 572 1065 553T1062 504H360Q362 385 403 313T509 208T644 175Q721 175 768 202T840 310H1044Q1033
206 980 133T839 23T640 -15ZM361 587Q369 631 398 647T478 663H840Q837 790 785 856T620 923Q493 923 427 832T361 587ZM748 1284H511L275 1614H530L748 1284Z" />
<glyph unicode="&#xe9;" horiz-adv-x="1200" d="M640 -15Q497 -15 385 49T207 240T142 549Q142 729 204 855T372 1047T612 1113Q815 1113 941 982T1067 606Q1067 572 1065 553T1062 504H360Q362 385 403 313T509 208T644 175Q721 175 768 202T840 310H1044Q1033
206 980 133T839 23T640 -15ZM361 587Q369 631 398 647T478 663H840Q837 790 785 856T620 923Q493 923 427 832T361 587ZM517 1284L735 1614H992L756 1284H517Z" />
<glyph unicode="&#xea;" horiz-adv-x="1200" d="M640 -15Q497 -15 385 49T207 240T142 549Q142 729 204 855T372 1047T612 1113Q815 1113 941 982T1067 606Q1067 572 1065 553T1062 504H360Q362 385 403 313T509 208T644 175Q721 175 768 202T840 310H1044Q1033
206 980 133T839 23T640 -15ZM361 587Q369 631 398 647T478 663H840Q837 790 785 856T620 923Q493 923 427 832T361 587ZM281 1283L509 1613H717L945 1283H760L613 1470L465 1283H281Z" />
<glyph unicode="&#xeb;" horiz-adv-x="1200" d="M640 -15Q497 -15 385 49T207 240T142 549Q142 729 204 855T372 1047T612 1113Q815 1113 941 982T1067 606Q1067 572 1065 553T1062 504H360Q362 385 403 313T509 208T644 175Q721 175 768 202T840 310H1044Q1033
206 980 133T839 23T640 -15ZM361 587Q369 631 398 647T478 663H840Q837 790 785 856T620 923Q493 923 427 832T361 587ZM398 1274Q343 1274 300 1317T257 1434Q257 1504 300 1548T398 1592Q456 1592 498 1548T540 1434Q540 1360 498 1317T398 1274ZM828 1274Q771
1274 729 1317T686 1434Q686 1504 728 1548T828 1592Q884 1592 926 1548T969 1434Q969 1360 927 1317T828 1274Z" />
<glyph unicode="&#xec;" horiz-adv-x="1200" d="M583 30V764Q583 808 602 846T685 888L583 933L572 1020L804 1091L800 30H583ZM241 0V176H1110V0H241ZM191 888V1091H804L729 888H191ZM820 1284H583L347 1614H602L820 1284Z" />
<glyph unicode="&#xed;" horiz-adv-x="1200" d="M583 30V764Q583 808 602 846T685 888L583 933L572 1020L804 1091L800 30H583ZM241 0V176H1110V0H241ZM191 888V1091H804L729 888H191ZM589 1284L807 1614H1064L828 1284H589Z" />
<glyph unicode="&#xee;" horiz-adv-x="1200" d="M583 30V764Q583 808 602 846T685 888L583 933L572 1020L804 1091L800 30H583ZM241 0V176H1110V0H241ZM191 888V1091H804L729 888H191ZM353 1283L581 1613H789L1017 1283H832L685 1470L537 1283H353Z" />
<glyph unicode="&#xef;" horiz-adv-x="1200" d="M583 30V764Q583 808 602 846T685 888L583 933L572 1020L804 1091L800 30H583ZM241 0V176H1110V0H241ZM191 888V1091H804L729 888H191ZM470 1274Q415 1274 372 1317T329 1434Q329 1504 372 1548T470 1592Q528 1592
570 1548T612 1434Q612 1360 570 1317T470 1274ZM900 1274Q843 1274 801 1317T758 1434Q758 1504 800 1548T900 1592Q956 1592 998 1548T1041 1434Q1041 1360 999 1317T900 1274Z" />
<glyph unicode="&#xf0;" horiz-adv-x="1200" d="M606 -15Q465 -15 355 52T182 241T119 528Q119 691 180 803T341 973T553 1032Q663 1032 729 987T830 882Q814 965 768 1069T650 1280L440 1139V1361L547 1422Q503 1477 454 1528T352 1625L621 1646Q650 1617 677
1587T730 1524L941 1655L937 1433L835 1382Q942 1220 1006 1029T1071 610Q1071 435 1032 315T927 123T778 18T606 -15ZM602 188Q667 188 722 219T810 333T843 567Q843 594 842 635T837 709T828 747Q803 775 769 796T695 829T608 841Q534 841 475 810T382 708T348
521Q348 342 419 265T602 188Z" />
<glyph unicode="&#xf1;" horiz-adv-x="1200" d="M183 0V1094H373L399 682L381 765Q404 938 489 1026T725 1114Q880 1114 957 1015T1035 723V0H811V646Q811 787 771 846T633 906Q557 906 497 867T407 765V0H183ZM761 1274Q694 1274 652 1299T583 1357T532 1416T477
1441Q425 1441 409 1392T407 1273H239Q220 1428 279 1512T460 1597Q527 1597 568 1572T636 1514T687 1455T741 1430Q794 1430 811 1475T815 1597H980Q999 1436 940 1355T761 1274Z" />
<glyph unicode="&#xf2;" horiz-adv-x="1200" d="M600 -15Q455 -15 347 49T179 240T119 552Q119 727 182 852T354 1045T600 1113Q749 1113 857 1046T1023 853T1081 552Q1081 367 1017 241T843 50T600 -15ZM600 178Q712 178 782 266T853 552Q853 734 786 827T600
920Q487 920 417 829T347 552Q347 365 417 272T600 178ZM735 1284H498L262 1614H517L735 1284Z" />
<glyph unicode="&#xf3;" horiz-adv-x="1200" d="M600 -15Q455 -15 347 49T179 240T119 552Q119 727 182 852T354 1045T600 1113Q749 1113 857 1046T1023 853T1081 552Q1081 367 1017 241T843 50T600 -15ZM600 178Q712 178 782 266T853 552Q853 734 786 827T600
920Q487 920 417 829T347 552Q347 365 417 272T600 178ZM504 1284L722 1614H979L743 1284H504Z" />
<glyph unicode="&#xf4;" horiz-adv-x="1200" d="M600 -15Q455 -15 347 49T179 240T119 552Q119 727 182 852T354 1045T600 1113Q749 1113 857 1046T1023 853T1081 552Q1081 367 1017 241T843 50T600 -15ZM600 178Q712 178 782 266T853 552Q853 734 786 827T600
920Q487 920 417 829T347 552Q347 365 417 272T600 178ZM268 1283L496 1613H704L932 1283H747L600 1470L452 1283H268Z" />
<glyph unicode="&#xf5;" horiz-adv-x="1200" d="M600 -15Q455 -15 347 49T179 240T119 552Q119 727 182 852T354 1045T600 1113Q749 1113 857 1046T1023 853T1081 552Q1081 367 1017 241T843 50T600 -15ZM600 178Q712 178 782 266T853 552Q853 734 786 827T600
920Q487 920 417 829T347 552Q347 365 417 272T600 178ZM751 1274Q684 1274 642 1299T573 1357T522 1416T467 1441Q415 1441 399 1392T397 1273H229Q210 1428 269 1512T450 1597Q517 1597 558 1572T626 1514T677 1455T731 1430Q784 1430 801 1475T805 1597H970Q989
1436 930 1355T751 1274Z" />
<glyph unicode="&#xf6;" horiz-adv-x="1200" d="M600 -15Q455 -15 347 49T179 240T119 552Q119 727 182 852T354 1045T600 1113Q749 1113 857 1046T1023 853T1081 552Q1081 367 1017 241T843 50T600 -15ZM600 178Q712 178 782 266T853 552Q853 734 786 827T600
920Q487 920 417 829T347 552Q347 365 417 272T600 178ZM385 1274Q330 1274 287 1317T244 1434Q244 1504 287 1548T385 1592Q443 1592 485 1548T527 1434Q527 1360 485 1317T385 1274ZM815 1274Q758 1274 716 1317T673 1434Q673 1504 715 1548T815 1592Q871 1592
913 1548T956 1434Q956 1360 914 1317T815 1274Z" />
<glyph unicode="&#xf7;" horiz-adv-x="1200" d="M181 657V859H1019V657H181ZM600 943Q542 943 501 984T460 1089Q460 1153 501 1194T600 1235Q659 1235 700 1194T741 1089Q741 1025 700 984T600 943ZM601 281Q543 281 502 322T460 428Q460 491 501 532T601 573Q660
573 700 532T741 428Q741 363 701 322T601 281Z" />
<glyph unicode="&#xf8;" horiz-adv-x="1200" d="M600 -15Q455 -15 347 49T179 240T119 552Q119 727 182 852T354 1045T600 1113Q749 1113 857 1046T1023 853T1081 552Q1081 367 1017 241T843 50T600 -15ZM600 178Q712 178 782 266T853 552Q853 734 786 827T600
920Q487 920 417 829T347 552Q347 365 417 272T600 178ZM170 -44L314 184L351 218L762 931L775 966L879 1134H1042L919 937L878 899L457 169L448 138L333 -44H170Z" />
<glyph unicode="&#xf9;" horiz-adv-x="1200" d="M494 -22Q358 -22 270 77T182 359V1092H405V396Q405 281 446 234T583 186Q660 186 722 230T810 329V1092H1035V0H844L818 412L836 329Q824 239 789 159T684 29T494 -22ZM744 1284H507L271 1614H526L744 1284Z" />
<glyph unicode="&#xfa;" horiz-adv-x="1200" d="M494 -22Q358 -22 270 77T182 359V1092H405V396Q405 281 446 234T583 186Q660 186 722 230T810 329V1092H1035V0H844L818 412L836 329Q824 239 789 159T684 29T494 -22ZM513 1284L731 1614H988L752 1284H513Z" />
<glyph unicode="&#xfb;" horiz-adv-x="1200" d="M494 -22Q358 -22 270 77T182 359V1092H405V396Q405 281 446 234T583 186Q660 186 722 230T810 329V1092H1035V0H844L818 412L836 329Q824 239 789 159T684 29T494 -22ZM277 1283L505 1613H713L941 1283H756L609
1470L461 1283H277Z" />
<glyph unicode="&#xfc;" horiz-adv-x="1200" d="M494 -22Q358 -22 270 77T182 359V1092H405V396Q405 281 446 234T583 186Q660 186 722 230T810 329V1092H1035V0H844L818 412L836 329Q824 239 789 159T684 29T494 -22ZM394 1274Q339 1274 296 1317T253 1434Q253
1504 296 1548T394 1592Q452 1592 494 1548T536 1434Q536 1360 494 1317T394 1274ZM824 1274Q767 1274 725 1317T682 1434Q682 1504 724 1548T824 1592Q880 1592 922 1548T965 1434Q965 1360 923 1317T824 1274Z" />
<glyph unicode="&#xfd;" horiz-adv-x="1200" d="M209 -431V-217H294Q370 -217 412 -204T474 -165T506 -100Q517 -59 530 -35T566 0H493L116 1091H370L503 606L621 223H630L739 605L872 1091H1125L750 0Q716 -99 679 -179T591 -315T470 -401T294 -431H209ZM525
1284L743 1614H1000L764 1284H525Z" />
<glyph unicode="&#xfe;" horiz-adv-x="1200" d="M658 -12Q597 -12 540 16T440 94T380 210L305 189L393 306Q415 241 473 208T593 174Q674 174 735 218T831 352T865 575Q865 741 811 832T631 923Q596 923 545 904T451 844T393 735V859Q402 930 447 987T561 1078T711
1112Q828 1112 914 1051T1047 870T1094 578Q1094 390 1034 258T875 57T658 -12ZM169 -403V1556H393V944V306L380 210L393 -1V-403H169Z" />
<glyph unicode="&#xff;" horiz-adv-x="1200" d="M209 -431V-217H294Q370 -217 412 -204T474 -165T506 -100Q517 -59 530 -35T566 0H493L116 1091H370L503 606L621 223H630L739 605L872 1091H1125L750 0Q716 -99 679 -179T591 -315T470 -401T294 -431H209ZM406
1274Q351 1274 308 1317T265 1434Q265 1504 308 1548T406 1592Q464 1592 506 1548T548 1434Q548 1360 506 1317T406 1274ZM836 1274Q779 1274 737 1317T694 1434Q694 1504 736 1548T836 1592Q892 1592 934 1548T977 1434Q977 1360 935 1317T836 1274Z" />
<glyph unicode="&#x2013;" horiz-adv-x="1200" d="M120 636V818H1080V636H120Z" />
<glyph unicode="&#x2014;" horiz-adv-x="1200" d="M0 636V818H1200L1198 636H0Z" />
<glyph unicode="&#x2018;" horiz-adv-x="1200" d="M700 1556V1373H661Q634 1373 620 1358T601 1297T596 1153Q596 1086 586 1057T522 1012H714V713H417V1086Q417 1329 478 1442T678 1556H700Z" />
<glyph unicode="&#x2019;" horiz-adv-x="1200" d="M500 713V896H539Q566 896 580 911T599 973T604 1116Q604 1184 614 1213T678 1257H486V1556H783V1183Q783 940 722 827T522 713H500Z" />
<glyph unicode="&#x201a;" horiz-adv-x="1200" d="M500 -547V-364H539Q566 -364 580 -349T599 -287T604 -144Q604 -76 614 -47T678 -3H486V296H783V-77Q783 -320 722 -433T522 -547H500Z" />
<glyph unicode="&#x201c;" horiz-adv-x="1200" d="M941 1556V1373H902Q875 1373 861 1359T842 1303T837 1173Q837 1106 827 1077T763 1032H955V733H658V1086Q658 1248 685 1352T769 1506T919 1556H941ZM529 1556V1373H490Q463 1373 449 1359T430 1303T425 1173Q425
1106 415 1077T351 1032H543V733H246V1086Q246 1248 273 1352T357 1506T507 1556H529Z" />
<glyph unicode="&#x201d;" horiz-adv-x="1200" d="M260 733V916H299Q326 916 340 930T359 987T364 1116Q364 1184 374 1213T438 1257H246V1556H543V1203Q543 1041 516 937T432 783T282 733H260ZM672 733V916H711Q738 916 752 930T771 987T776 1116Q776 1184 786
1213T850 1257H658V1556H955V1203Q955 1041 928 937T844 783T694 733H672Z" />
<glyph unicode="&#x201e;" horiz-adv-x="1200" d="M260 -527V-344H299Q326 -344 340 -330T359 -273T364 -144Q364 -76 374 -47T438 -3H246V296H543V-57Q543 -219 516 -323T432 -477T282 -527H260ZM672 -527V-344H711Q738 -344 752 -330T771 -273T776 -144Q776
-76 786 -47T850 -3H658V296H955V-57Q955 -219 928 -323T844 -477T694 -527H672Z" />
<glyph unicode="&#x2022;" horiz-adv-x="1200" d="M600 541Q509 541 450 604T390 761Q390 855 449 918T600 981Q692 981 751 918T811 761Q811 667 752 604T600 541Z" />
<glyph unicode="&#x2039;" horiz-adv-x="1200" d="M578 173L335 548V558L578 933H815L632 660Q604 618 584 593T509 553Q563 539 584 514T632 448L815 173H578Z" />
<glyph unicode="&#x203a;" horiz-adv-x="1200" d="M385 173L568 448Q595 489 616 514T691 553Q637 567 617 592T568 660L385 933H622L865 558V548L622 173H385Z" />
</font>
</defs>
</svg>
